<mxfile host="app.diagrams.net" modified="2024-05-21T10:06:07.680Z" agent="Mozilla/5.0 (Windows NT 10.0; Win64; x64) AppleWebKit/537.36 (KHTML, like Gecko) Chrome/124.0.0.0 Safari/537.36" etag="q3QbID7ziFg5eca1RrGV" version="24.4.4" type="google">
  <diagram name="Страница — 1" id="yVSbj89HNuxW_YOABZYB">
    <mxGraphModel grid="1" page="1" gridSize="10" guides="1" tooltips="1" connect="1" arrows="1" fold="1" pageScale="1" pageWidth="827" pageHeight="1169" math="0" shadow="0">
      <root>
        <mxCell id="0" />
        <mxCell id="1" parent="0" />
        <mxCell id="av0BF11dpuZzBT7OYnAO-1" value="&lt;font face=&quot;Verdana&quot;&gt;DB&lt;/font&gt;" style="rounded=0;whiteSpace=wrap;html=1;strokeColor=#FFFFFF;" vertex="1" parent="1">
          <mxGeometry x="640" y="240" width="120" height="60" as="geometry" />
        </mxCell>
        <mxCell id="av0BF11dpuZzBT7OYnAO-4" value="Модуль прогноза" style="rounded=0;whiteSpace=wrap;html=1;strokeColor=#FFFFFF;" vertex="1" parent="1">
          <mxGeometry x="640" y="90" width="120" height="60" as="geometry" />
        </mxCell>
        <mxCell id="av0BF11dpuZzBT7OYnAO-5" value="&lt;font face=&quot;Verdana&quot;&gt;Анализ простоев&lt;/font&gt;" style="rounded=0;whiteSpace=wrap;html=1;strokeColor=#FFFFFF;" vertex="1" parent="1">
          <mxGeometry x="450" y="150" width="120" height="60" as="geometry" />
        </mxCell>
        <mxCell id="av0BF11dpuZzBT7OYnAO-6" value="" style="endArrow=classic;startArrow=classic;html=1;rounded=0;exitX=1;exitY=0.5;exitDx=0;exitDy=0;entryX=0;entryY=0;entryDx=0;entryDy=0;strokeColor=#FFFFFF;" edge="1" parent="1" source="av0BF11dpuZzBT7OYnAO-5" target="av0BF11dpuZzBT7OYnAO-1">
          <mxGeometry width="50" height="50" relative="1" as="geometry">
            <mxPoint x="520" y="320" as="sourcePoint" />
            <mxPoint x="570" y="270" as="targetPoint" />
          </mxGeometry>
        </mxCell>
        <mxCell id="av0BF11dpuZzBT7OYnAO-7" value="&lt;font face=&quot;Verdana&quot;&gt;Core&lt;/font&gt;" style="rounded=0;whiteSpace=wrap;html=1;strokeColor=#FFFFFF;" vertex="1" parent="1">
          <mxGeometry x="450" y="240" width="120" height="60" as="geometry" />
        </mxCell>
        <mxCell id="av0BF11dpuZzBT7OYnAO-8" value="" style="endArrow=classic;startArrow=classic;html=1;rounded=0;exitX=1;exitY=0.5;exitDx=0;exitDy=0;entryX=0;entryY=0.5;entryDx=0;entryDy=0;strokeColor=#FFFFFF;" edge="1" parent="1" source="av0BF11dpuZzBT7OYnAO-7" target="av0BF11dpuZzBT7OYnAO-1">
          <mxGeometry width="50" height="50" relative="1" as="geometry">
            <mxPoint x="520" y="440" as="sourcePoint" />
            <mxPoint x="640" y="270" as="targetPoint" />
          </mxGeometry>
        </mxCell>
        <mxCell id="av0BF11dpuZzBT7OYnAO-9" value="&lt;font face=&quot;Verdana&quot;&gt;App Web&lt;/font&gt;" style="rounded=0;whiteSpace=wrap;html=1;strokeColor=#FFFFFF;" vertex="1" parent="1">
          <mxGeometry x="260" y="240" width="120" height="60" as="geometry" />
        </mxCell>
        <mxCell id="av0BF11dpuZzBT7OYnAO-10" value="" style="endArrow=classic;startArrow=classic;html=1;rounded=0;exitX=1;exitY=0.5;exitDx=0;exitDy=0;fillColor=#FFFFFF;strokeColor=#FFFFFF;" edge="1" parent="1" source="av0BF11dpuZzBT7OYnAO-9" target="av0BF11dpuZzBT7OYnAO-7">
          <mxGeometry width="50" height="50" relative="1" as="geometry">
            <mxPoint x="330" y="440" as="sourcePoint" />
            <mxPoint x="450" y="270" as="targetPoint" />
          </mxGeometry>
        </mxCell>
        <mxCell id="av0BF11dpuZzBT7OYnAO-13" value="" style="endArrow=classic;startArrow=classic;html=1;rounded=0;exitX=1;exitY=0.5;exitDx=0;exitDy=0;strokeColor=#FFFFFF;" edge="1" parent="1">
          <mxGeometry width="50" height="50" relative="1" as="geometry">
            <mxPoint x="190" y="269.66" as="sourcePoint" />
            <mxPoint x="260" y="269.66" as="targetPoint" />
          </mxGeometry>
        </mxCell>
        <mxCell id="av0BF11dpuZzBT7OYnAO-14" value="User" style="text;html=1;align=center;verticalAlign=middle;resizable=0;points=[];autosize=1;strokeColor=#FFFFFF;fillColor=none;" vertex="1" parent="1">
          <mxGeometry x="130" y="255" width="50" height="30" as="geometry" />
        </mxCell>
        <mxCell id="av0BF11dpuZzBT7OYnAO-16" value="&lt;font face=&quot;Verdana&quot;&gt;Формирование отчетов&lt;/font&gt;" style="rounded=0;whiteSpace=wrap;html=1;strokeColor=#FFFFFF;" vertex="1" parent="1">
          <mxGeometry x="450" y="330" width="120" height="60" as="geometry" />
        </mxCell>
        <mxCell id="av0BF11dpuZzBT7OYnAO-17" value="" style="endArrow=classic;startArrow=classic;html=1;rounded=0;exitX=1;exitY=0.5;exitDx=0;exitDy=0;entryX=0;entryY=1;entryDx=0;entryDy=0;strokeColor=#FFFFFF;" edge="1" parent="1" source="av0BF11dpuZzBT7OYnAO-16" target="av0BF11dpuZzBT7OYnAO-1">
          <mxGeometry width="50" height="50" relative="1" as="geometry">
            <mxPoint x="530" y="540" as="sourcePoint" />
            <mxPoint x="639.9999999999998" y="239.9999999999999" as="targetPoint" />
          </mxGeometry>
        </mxCell>
        <mxCell id="av0BF11dpuZzBT7OYnAO-18" value="&lt;font face=&quot;Verdana&quot;&gt;Анализ показателей&lt;/font&gt;" style="rounded=0;whiteSpace=wrap;html=1;strokeColor=#FFFFFF;" vertex="1" parent="1">
          <mxGeometry x="450" y="420" width="120" height="60" as="geometry" />
        </mxCell>
        <mxCell id="av0BF11dpuZzBT7OYnAO-20" value="" style="endArrow=classic;startArrow=classic;html=1;rounded=0;exitX=1;exitY=0.5;exitDx=0;exitDy=0;entryX=0.25;entryY=1;entryDx=0;entryDy=0;strokeColor=#FFFFFF;" edge="1" parent="1" source="av0BF11dpuZzBT7OYnAO-18" target="av0BF11dpuZzBT7OYnAO-1">
          <mxGeometry width="50" height="50" relative="1" as="geometry">
            <mxPoint x="580" y="370" as="sourcePoint" />
            <mxPoint x="650" y="310" as="targetPoint" />
          </mxGeometry>
        </mxCell>
        <mxCell id="av0BF11dpuZzBT7OYnAO-22" value="&lt;font face=&quot;Verdana&quot;&gt;Telegram&lt;/font&gt;" style="rounded=0;whiteSpace=wrap;html=1;strokeColor=#FFFFFF;" vertex="1" parent="1">
          <mxGeometry x="260" y="420" width="120" height="60" as="geometry" />
        </mxCell>
        <mxCell id="av0BF11dpuZzBT7OYnAO-23" value="" style="endArrow=classic;startArrow=classic;html=1;rounded=0;exitX=1;exitY=0.5;exitDx=0;exitDy=0;strokeColor=#FFFFFF;" edge="1" parent="1" source="av0BF11dpuZzBT7OYnAO-22">
          <mxGeometry width="50" height="50" relative="1" as="geometry">
            <mxPoint x="330" y="620" as="sourcePoint" />
            <mxPoint x="450" y="450" as="targetPoint" />
          </mxGeometry>
        </mxCell>
        <mxCell id="av0BF11dpuZzBT7OYnAO-24" value="" style="endArrow=classic;startArrow=classic;html=1;rounded=0;exitX=0.499;exitY=1.031;exitDx=0;exitDy=0;entryX=-0.002;entryY=0.616;entryDx=0;entryDy=0;entryPerimeter=0;exitPerimeter=0;strokeColor=#FFFFFF;" edge="1" parent="1" source="av0BF11dpuZzBT7OYnAO-14" target="av0BF11dpuZzBT7OYnAO-22">
          <mxGeometry width="50" height="50" relative="1" as="geometry">
            <mxPoint x="200" y="279.66" as="sourcePoint" />
            <mxPoint x="270" y="279.66" as="targetPoint" />
          </mxGeometry>
        </mxCell>
        <mxCell id="av0BF11dpuZzBT7OYnAO-25" value="&lt;font face=&quot;Verdana&quot;&gt;Parser excel&lt;/font&gt;" style="rounded=0;whiteSpace=wrap;html=1;strokeColor=#FFFFFF;" vertex="1" parent="1">
          <mxGeometry x="640" y="370" width="120" height="60" as="geometry" />
        </mxCell>
        <mxCell id="av0BF11dpuZzBT7OYnAO-26" value="" style="endArrow=classic;startArrow=classic;html=1;rounded=0;exitX=0.5;exitY=0;exitDx=0;exitDy=0;entryX=0.5;entryY=1;entryDx=0;entryDy=0;strokeColor=#FFFFFF;" edge="1" parent="1" source="av0BF11dpuZzBT7OYnAO-25" target="av0BF11dpuZzBT7OYnAO-1">
          <mxGeometry width="50" height="50" relative="1" as="geometry">
            <mxPoint x="580" y="460" as="sourcePoint" />
            <mxPoint x="680" y="310" as="targetPoint" />
          </mxGeometry>
        </mxCell>
        <mxCell id="ss4jIck6bM9fKo7-DhDl-1" value="" style="endArrow=classic;startArrow=classic;html=1;rounded=0;exitX=0.5;exitY=1;exitDx=0;exitDy=0;entryX=0.5;entryY=0;entryDx=0;entryDy=0;strokeColor=#FFFFFF;" edge="1" parent="1" source="av0BF11dpuZzBT7OYnAO-4" target="av0BF11dpuZzBT7OYnAO-1">
          <mxGeometry width="50" height="50" relative="1" as="geometry">
            <mxPoint x="660" y="170" as="sourcePoint" />
            <mxPoint x="730" y="230" as="targetPoint" />
          </mxGeometry>
        </mxCell>
      </root>
    </mxGraphModel>
  </diagram>
</mxfile>
